<svg xmlns="http://www.w3.org/2000/svg" viewBox="0 0 400 400">
  <style><![CDATA[.g{fill:#a8836c}.h{fill-rule:evenodd}.i{fill:#cfae95}.j{fill:#755800}.k{fill:#2b2b2b}.l{fill:#8c7c2f}.m{fill:#ab913c}.n{fill:#eed2c1}.o{fill:#cbac14}.p{fill:#848585}.q{fill:#846400}]]></style>
  <path
    d="M121.86 124.42l-9.92 4.11-1.88 9.37 6.01 1.29h0l.53 5.77 12.13-5.01 5.69-10.06 2.02-12.34-14.58 6.87z"
    class="g" />
  <path d="M100.04 388.59l128.13-14.73 92.53 14.42-93.66 10.71-127-10.4z" opacity=".1" class="k" />
  <path d="M105.78 266.61l36.69 36.37-30.39-40.71-6.3 4.34z" class="p" />
  <path d="M135.93 211.63l-30.15 54.98 5.43 5.38 35.28-61.36-10.56 1z" fill="#6f7173" />
  <path d="M79.49 203.99l63.65 12.29 3.35-5.65-68.82-17.03 1.82 10.39z" class="p" />
  <path d="M49.67 126.84l29.82 77.15 8.17 1.51-27.61-82.29-10.38 3.63z" fill="#6f7173" />
  <path d="M109.5 79.33l-59.83 47.51 3.2 8.28 66.87-52.62 12.34-12.19-22.58 9.02z" class="p" />
  <g class="h">
    <path d="M184.03 158.16l-45.92 15.67 12.74 28.63 33.3-5.52-.12-38.78z" class="l" />
    <path d="M182.24 263.27l-11.27 56.96 14.53 24.31 21.5 23.28-2.33-36.87 18.54-32.66-40.97-35.02z"
      class="j" />
    <path d="M260.75 273.32l1 22.78-4.05 40.55-17.61 3.77-17.24-7.79-8.23-33.18 46.13-26.13z"
      fill="#9d7700" />
    <path d="M222.85 332.63l16.28 32.86 11.4 5.36 14.58-1.68-7.41-32.52-34.85-4.02z" class="j" />
    <path d="M239.13 365.49l-8.58 22.11 15.94 2.68 22.31-2.68-3.69-18.43-25.98-3.68z" class="m" />
    <path
      d="M260.75 273.32l-46.13 26.13-32.38-36.18 32.38-2.16 46.13 12.21zm-89.78 46.91l33.7 10.72 5.35 39.89-19.99-1.34-7.14-10.72-11.92-38.55z"
      class="q" />
    <path d="M182.89 358.78l-27.84 21.44 29.86 2 25.48-2-.37-9.38-27.13-12.06z" class="m" />
  </g>
  <path d="M155.05 380.22h55.34v5.36h-55.34z" class="l" />
  <g class="h">
    <path d="M182.24 248.91v14.36l14.76 1.89 15.25.7 9.85 2.51 38.65 4.95-1-14.41-36.98-10h-40.53z"
      class="j" />
    <path d="M198.63 251.02L197 265.16l25.1 3.21 1.21-14.16-13.29-3.19h-11.39z" fill="#a2a2a2" />
    <path d="M202.93 255.17l-.33 7.2 14.24 1.51 1-7.21-14.91-1.5z" fill="#674736" />
  </g>
  <path d="M230.55 387.6h38.25v5.36h-38.25z" class="l" />
  <g class="h">
    <path
      d="M185.83 162.27l-6.78 21.6-12.27 63.32 15.44 1.83 16.41 2 24.68 3.19 36.44 4.7 20.09-102.8-22.69-6.1-56.69 9.69-14.63 2.57z"
      class="m" />
    <path d="M255.34 75.27l26.39-26.76-10.34-17.3-11.42 6.6L221.4 52.7l13.25 11.15 20.69 11.42z"
      class="j" />
  </g>
  <path
    d="M148.32 78.38l-.45 7.9 10.09 38.92 25.36 30.37 18.76-3.32-3.11 31.1 20.1 1.78 11.62-11.06 17.51-28 7.14-70.8-34.25-17.13-72.77 20.24z"
    class="n" />
  <path
    d="M221.09 58.14l5.98 66.53-9.37 27.83-16.1 1.01-3.52 14.68.89 15.16 14.99 13.91 18.46-16.68 7.34-19.35 9.56-20.07 3.75-32.86-.27-6.75 1.73-5.76.81-20.52-34.25-17.13z"
    class="i" />
  <path d="M147.87 86.28l74.54-13.45 7.21-3.77-8.53-10.92-75.98 17.48 2.76 10.66z" class="g" />
  <path d="M229.62 69.06l5.2 6.65v13.11h7.49V76.25l13.03-.98-3.26-17.13-18.59-1.16-3.87 12.08z"
    fill="#66483a" />
  <path d="M229.62 69.06l22.46-10.92-1.03-5.44h-20.24l-9.72 5.44 8.53 10.92z" fill="#51362a" />
  <path d="M254.53 95.79h-12.05l10.59 12.51 1.46-12.51zm-7.67-5.1v-9.9h6.16l-6.16 9.9z" class="g" />
  <path
    d="M179.18 115.3l-17.59 14.26 22.44 28.6 16.78-1.36 18.26-7.92 9.07-24.83-1.9-9.17-35.02-2.52-12.04 2.94z"
    class="n" />
  <path d="M226.24 115.5l8.58-26.68h7.49l-1.33 53.77-21.91 6.91 7.17-34z" class="i" />
  <path
    d="M179.18 115.3l-17.59 14.26 22.44 28.6 35.04-9.28 7.17-34-35.02-2.52-12.04 2.94zm47.06.2l8.58-26.68h7.49l-1.33 53.77-21.91 6.91 7.17-34z"
    opacity=".1" class="k" />
  <path d="M201.6 153.51l39.38-10.92-22.15 25.7-17.23-14.78z" class="g" />
  <g class="h">
    <path
      d="M155 92.5l14.22 8.44 9.96 14.36 12.04-2.94 6.89-20.14 9.63-13.84-21.36 4.9-2.48 8.75-5.79 1.07-3.37-4.31L155 92.5z"
      class="i" />
    <path d="M186.31 119.28l-7.13-3.98 12.04-2.94-4.91 6.92z" class="g" />
    <path d="M178.11 93.1l1.07 22.2 12.04-2.94-7.32-20.33-5.79 1.07z" fill="#f6e5db" />
    <path d="M184.91 144.55l12.04-2.6 7.36.07.36 1.72-7.61-.4-11.77 1.98-.38-.77z" class="i" />
    <path
      d="M155 92.5l8.46-5.29 10.52-1.47.76 3.05L155 92.5zm30.83-13.07l12.25-2.21 9.64 1.17-21.34 4.89-.55-3.85z"
      fill="#66483a" />
  </g>
  <g class="k">
    <circle cx="198.08" cy="89.53" r="3.39" />
    <circle cx="168.3" cy="97.2" r="3.39" />
  </g>
  <g class="h">
    <path d="M179.62 131l16.82-2.85 9.69-7.07-.4-3.23 4.68 3.76-13.29 9.66-16.96 2.76-.54-3.03z"
      class="g" />
    <path
      d="M179.18 115.3l-2.65 13.04-.49-10.49 3.14-2.55zm12.04-2.94l14.51 5.49 4.68 3.76-2.69-8.06-16.5-1.19z"
      class="i" />
    <path
      d="M230.18 179.6l-6.87 74.61-24.68-3.19.14-68.82 14.07 13.06 17.34-15.66zm6.89-11.31l-4.26-.33-1.73-8.57 18.24-18.23-.3 7.53-11.95 19.6z"
      fill="#ebebea" />
    <path
      d="M237.07 168.29l-5.99-8.9-17.01 34.76 16.11-14.55 6.89-11.31zm-38.3 13.91l-8.68-25.64 11.51-3.05 6.86 5.88-9.69 22.81z"
      fill="#c3c3c3" />
    <path d="M194.75 172.31l-4.66-15.75 11.51-3.05-6.85 18.8z" fill="#ebebea" />
    <path
      d="M249.32 141.16l7.83 8.85-5.45 48.94-22.98-3.69 1.46-15.66 19.14-38.44zm-50.69 55.45l-19.58-12.74 3.19-16.77 7.85-10.54 8.68 25.64-.14 14.41z"
      class="o" />
    <path
      d="M251.7 198.95l-24.09 8.56 1.11-12.25 22.98 3.69zm-53.07-2.34V206l-19.58-22.13 19.58 12.74z"
      opacity=".2" class="k" />
    <path d="M190.09 156.56l57.41 100.77-3.36 9.2-4.42 4.1-57.48-103.53 1.79-8.94 6.06-1.6z"
      class="q" />
    <path d="M279.84 156.11l25.09 47.61-43.18 23.37 18.09-70.98z" class="l" />
  </g>
  <path d="M253.44 228.53l-9.53 2.06-3.71 4.91-4.55 1.06-1.32-18.28 19.63 4.05-.52 6.2z" class="g" />
  <path d="M253.96 222.33l-16.89.36-6.52-2.85-2.94-12.33 23.91 1.09 2.44 13.73z" class="n" />
  <path d="M214.07 224.43l4.9 8.82 8.07-4.41-12.97-4.41z" class="g" />
  <path d="M227.61 207.51l-13.54 16.92 21.58 12.13 1.42-13.87-9.46-15.18z" class="i" />
  <g class="h">
    <path d="M304.93 203.72l-53.41 4.88 2.63 31.37 39.85-9.25 10.93-27z" class="o" />
    <path d="M243.49 283.09l1.79 34.95 12.42 18.61 3.66-37.2-17.87-16.36z" opacity=".2" class="k" />
    <path d="M239.72 270.63l12.82 42.39 6.34 7.82-1.57-38.73-9.81-24.78-7.78 13.3z" class="j" />
    <path d="M253.74 292.17l11.74-17.48 24.42 5.39-2.66 32.24-28.36 8.52-5.14-28.67z" class="l" />
    <path d="M253.74 292.17l36.16-12.09-14.25-27.53-28.15 4.78 6.24 34.84z" class="o" />
    <path d="M264.26 272.36l6.7 28.76 6.37-1.67-7.2-28.82-5.87 1.73z" fill="#825940" />
    <path
      d="M273.73 274l-11.22 3.18 2.6 11.2 11.64-3.9zm-6.63 10.59l-1.33-5.48 6.05-1.7 1.32 5.22zm-116.25-82.13l-22.12-62.51-22.99 9.5-7.49 3.27 22.45 39.43 30.15 10.31z"
      class="o" />
    <path d="M136.19 161.01l-7.46-21.06-22.99 9.5 8.27 11.56h22.18z" opacity=".2" class="m" />
  </g>
  <path
    d="M105.74 149.45l10.35 5.29 1.04-5.29-.47-2.74 1.48-2.38.86-4.38-.53-2.43 1.48-2.4 6.92-35.15-.4-3.03 1.49-2.51 5.8-29.41-10.05-1.49-6.2 29.65.57 2.06-1.39 1.87-7.1 33.81-1.52 4.66v2.76l-1.04 4.98.41 2.85-1.7 3.28z"
    fill="#4f5253" />
  <path
    d="M105.74 149.45h11.39l1.01-5.12-11.11-1.01-1.29 6.13zm13.26-9.5l-10.93-1.61.73-3.5 11.15.28-.95 4.83zm7.89-39.97l-10.2-2.87.82-3.93 10.45 1.25-1.07 5.55z"
    fill="#737373" />
  <g class="h">
    <path d="M145.12 19.97L174.9 2.85 225.5 0l-58.99 31.21-21.39-11.24z" fill="#e1a842" />
    <path d="M109.5 79.33l67.23-4.06 83.24-37.46-18.54.35-98.21 8.58-27.53 3.2-6.19 29.39z"
      fill="#bb8e2d" />
    <path d="M142.26 60.2L109.5 79.33l69.68 1.3 80.79-42.82-18.54.35-99.17 22.04z" fill="#e1a842" />
    <path d="M145.12 19.97l21.39 4.28 7.77 13.56v24.61l-31.06-15.68 1.9-26.77z" fill="#b48a00" />
    <g class="q">
      <path d="M166.51 24.25L225.5 0l10.12 24.25-61.34 38.17-7.77-38.17z" />
      <path d="M171.69 48.15l-28.47-1.41-.96 13.46 32.02 2.22.46-7.84-3.05-6.43z" />
    </g>
    <path d="M235.62 24.25l-63.93 23.9 2.59 14.27 67.15-24.26-5.81-13.91z" class="j" />
  </g>
  <path d="M108.07 138.34L104 127.93l15.84-3.5.11 10.69-10.36-4.2-1.52 7.42z" class="g" />
  <path d="M119.95 135.12l16.49-17.57-9.55-17.57-8.17 16.8-.88 9.65 2.11 8.69z" class="i" />
  <path d="M126.89 99.98l-16.33 1-6.56 26.95 13.84-1.5 9.05-26.45z" class="n" />
</svg>
