<svg width="512" height="512" viewBox="0 0 512 512" aria-hidden="true" focusable="false" role="img" xmlns="http://www.w3.org/2000/svg"><path fill="#808080" d="M393.373,233.373c12.496,12.496 12.496,32.758 -0,45.254c-47.787,47.787 -158.07,158.07 -200.402,200.402c-9.373,9.373 -24.569,9.373 -33.942,0c-11.478,-11.478 -26.58,-26.58 -38.058,-38.058c-4.501,-4.501 -7.03,-10.606 -7.03,-16.971c0,-6.365 2.529,-12.47 7.03,-16.971c42.667,-42.667 151.029,-151.029 151.029,-151.029c-0,0 -108.362,-108.362 -151.029,-151.029c-4.501,-4.501 -7.03,-10.606 -7.03,-16.971c0,-6.365 2.529,-12.47 7.03,-16.971c11.478,-11.478 26.58,-26.58 38.058,-38.058c9.373,-9.373 24.569,-9.373 33.942,-0c42.332,42.332 152.615,152.615 200.402,200.402Z"/></svg>